<svg width="24" height="24" viewBox="0 0 24 24" fill="none" xmlns="http://www.w3.org/2000/svg">
<path d="M1 9L3.58579 6.41421C4.36684 5.63316 5.63317 5.63317 6.41421 6.41421L8.58579 8.58579C9.36684 9.36684 10.6332 9.36683 11.4142 8.58579L13.5858 6.41421C14.3668 5.63316 15.6332 5.63317 16.4142 6.41421L18.3694 8.3694C19.23 9.23002 20.6534 9.12886 21.3836 8.15518L23 6" stroke="#CFD9E7" stroke-width="2" stroke-linecap="round" stroke-linejoin="round"/>
<path d="M1 14L3.58579 11.4142C4.36684 10.6332 5.63317 10.6332 6.41421 11.4142L8.58579 13.5858C9.36684 14.3668 10.6332 14.3668 11.4142 13.5858L13.5858 11.4142C14.3668 10.6332 15.6332 10.6332 16.4142 11.4142L18.3694 13.3694C19.23 14.23 20.6534 14.1289 21.3836 13.1552L23 11" stroke="#CFD9E7" stroke-width="2" stroke-linecap="round" stroke-linejoin="round"/>
<path d="M1 19L3.58579 16.4142C4.36684 15.6332 5.63317 15.6332 6.41421 16.4142L8.58579 18.5858C9.36684 19.3668 10.6332 19.3668 11.4142 18.5858L13.5858 16.4142C14.3668 15.6332 15.6332 15.6332 16.4142 16.4142L18.3694 18.3694C19.23 19.23 20.6534 19.1289 21.3836 18.1552L23 16" stroke="#CFD9E7" stroke-width="2" stroke-linecap="round" stroke-linejoin="round"/>
</svg>
