<svg width="16" height="16" viewBox="0 0 16 16" fill="none" xmlns="http://www.w3.org/2000/svg">
<path d="M8.00004 14.6666C4.31804 14.6666 1.33337 11.682 1.33337 7.99998C1.33337 4.31798 4.31804 1.33331 8.00004 1.33331C11.682 1.33331 14.6667 4.31798 14.6667 7.99998C14.6667 11.682 11.682 14.6666 8.00004 14.6666ZM6.00004 7.33331C5.63185 6.96512 5.0349 6.96512 4.66671 7.33331C4.29852 7.7015 4.29852 8.29846 4.66671 8.66665L6.59263 10.5926C7.00173 11.0017 7.66502 11.0017 8.07411 10.5926L11.3334 7.33331C11.7016 6.96512 11.7016 6.36817 11.3334 5.99998C10.9652 5.63179 10.3682 5.63179 10 5.99998L7.44148 8.55854C7.38178 8.61825 7.28497 8.61824 7.22527 8.55854L6.00004 7.33331Z" fill="#3BDBC9"/>
</svg>
